# xmcd CD database file
#
# Track frame offsets:
#	150
#	18524
#	44766
#	69437
#	107200
#
# Disc length: 1731 seconds
#
# Revision: 3
# Processed by: cddbd v1.5.2PL0 Copyright (c) Steve Scherf et al.
# Submitted via: CDex 1.70beta3
#
DISCID=4206c105
DTITLE=ケイコ・リー - ヴォイセズ・アゲイン CD2
DYEAR=2005
DGENRE=Jazz
TTITLE0=秋桜
TTITLE1=星たちの距離
TTITLE2=夢幻蒼
TTITLE3=Everything Must Change
TTITLE4=(VIDEO)
EXTD=YEAR: 2005
EXTT0=
EXTT1=
EXTT2=
EXTT3=
EXTT4=
PLAYORDER=
